<?xml version="1.0" encoding="UTF-8" standalone="no"?><!-- Created with Inkscape (http://www.inkscape.org/) -->

<svg xmlns:cc="http://creativecommons.org/ns#" xmlns:dc="http://purl.org/dc/elements/1.1/"
    xmlns:inkscape="http://www.inkscape.org/namespaces/inkscape"
    xmlns:rdf="http://www.w3.org/1999/02/22-rdf-syntax-ns#"
    xmlns:sodipodi="http://sodipodi.sourceforge.net/DTD/sodipodi-0.dtd"
    xmlns:xlink="http://www.w3.org/1999/xlink" height="96" id="svg2408" version="1.0" width="96"
    xmlns="http://www.w3.org/2000/svg"
    inkscape:export-filename="/home/xsoh64/Desktop/Designs/Etar notification Logo.png"
    inkscape:export-xdpi="468.75" inkscape:export-ydpi="468.75" inkscape:version="0.48.4 r9939"
    sodipodi:docname="Etar notification Logo.svg">
    <sodipodi:namedview bordercolor="#666666" borderopacity="1" gridtolerance="10"
        guidetolerance="10" id="namedview96" objecttolerance="10" pagecolor="#ffffff"
        showgrid="false" showguides="true" inkscape:current-layer="svg2408" inkscape:cx="44.582265"
        inkscape:cy="110.922" inkscape:guide-bbox="true" inkscape:pageopacity="0"
        inkscape:pageshadow="2" inkscape:window-height="744" inkscape:window-maximized="0"
        inkscape:window-width="1317" inkscape:window-x="444" inkscape:window-y="282"
        inkscape:zoom="1.2291667" />
    <defs id="defs2410">
        <linearGradient id="linearGradient5263">
            <stop style="stop-color:#ffffff;stop-opacity:1;" id="stop5265" offset="0" />
            <stop style="stop-color:#ffffff;stop-opacity:0;" id="stop5267" offset="1" />
        </linearGradient>
        <linearGradient id="linearGradient3757">
            <stop style="stop-color:#42a696;stop-opacity:1;" id="stop3759" offset="0" />
            <stop style="stop-color:#41c3b1;stop-opacity:1;" id="stop3761" offset="1" />
        </linearGradient>
        <linearGradient id="linearGradient3777">
            <stop style="stop-color:#ffffff;stop-opacity:0" id="stop3779" offset="0" />
            <stop style="stop-color:#f2f2f2;stop-opacity:1;" id="stop3787" offset="0.9122979" />
            <stop style="stop-color:#ffffff;stop-opacity:1" id="stop3783" offset="1" />
        </linearGradient>
        <linearGradient gradientTransform="scale(1.0058652,0.994169)" gradientUnits="userSpaceOnUse"
            id="ButtonShadow" x1="45.447727" x2="45.447727" y1="92.539597" y2="7.0165396">
            <stop style="stop-color:#000000;stop-opacity:1" id="stop3750" offset="0" />
            <stop style="stop-color:#000000;stop-opacity:0.58823532" id="stop3752" offset="1" />
        </linearGradient>
        <linearGradient id="linearGradient3737">
            <stop style="stop-color:#ffffff;stop-opacity:1" id="stop3739" offset="0" />
            <stop style="stop-color:#ffffff;stop-opacity:0" id="stop3741" offset="1" />
        </linearGradient>
        <filter color-interpolation-filters="sRGB" id="filter3174">
            <feGaussianBlur id="feGaussianBlur3176" stdDeviation="1.71" />
        </filter>
        <linearGradient gradientUnits="userSpaceOnUse" id="linearGradient3188" x1="36.357143"
            x2="36.357143" y1="6" y2="63.893143" xlink:href="#linearGradient3737" />
        <filter color-interpolation-filters="sRGB" height="1.3839999" id="filter3794"
            width="1.3839999" x="-0.192" y="-0.192">
            <feGaussianBlur id="feGaussianBlur3796" stdDeviation="5.28" />
        </filter>
        <linearGradient gradientUnits="userSpaceOnUse" id="linearGradient3613" x1="48" x2="48"
            y1="20.220806" y2="138.66119" xlink:href="#linearGradient3737" />
        <radialGradient cx="48" cy="90.171875" fx="48" fy="90.171875"
            gradientTransform="matrix(1.1573129,0,0,0.99590774,-42.262885,-22.887614)"
            gradientUnits="userSpaceOnUse" id="radialGradient3619" r="42"
            xlink:href="#linearGradient3737" />
        <clipPath id="clipPath3613">
            <rect style="fill:#ffffff;fill-opacity:1;fill-rule:nonzero;stroke:none" height="84"
                id="rect3615" rx="6" ry="6" width="84" x="6" y="6" />
        </clipPath>
        <linearGradient gradientUnits="userSpaceOnUse" id="linearGradient3617" x1="48" x2="48"
            y1="90" y2="5.9877172" xlink:href="#ButtonColor-0" />
        <linearGradient gradientTransform="matrix(0.71186441,0,0,0.71186441,2.44068,2.440678)"
            gradientUnits="userSpaceOnUse" id="linearGradient3185" x1="38.410439" x2="110.98586"
            y1="39.834473" y2="112.4099" xlink:href="#linearGradient3777" />
        <linearGradient gradientTransform="matrix(1.0172414,0,0,1.0172414,-1.1034483,-1.1034483)"
            gradientUnits="userSpaceOnUse" id="ButtonColor" x1="58.650177" x2="58.650177" y1="122"
            y2="5.4252338">
            <stop style="stop-color:#e4b31e;stop-opacity:1" id="stop3189" offset="0" />
            <stop style="stop-color:#ffef64;stop-opacity:1" id="stop3191" offset="1" />
        </linearGradient>
        <clipPath id="clipPath3800">
            <path style="fill:url(#linearGradient3804);fill-opacity:1;fill-rule:nonzero;stroke:none"
                d="m 62,6 c -3.324,0 -6,2.676 -6,6 l 0,0.53125 C 56,8.9207 58.9207,6 62.53125,6 L 62,6 z m 71.46875,0 C 137.0793,6 140,8.9207 140,12.53125 L 140,12 c 0,-3.324 -2.676,-6 -6,-6 l -0.53125,0 z M 140,12.53125 c 0,36.73465 -3.54263,60.10471 -7.84375,69.9375 C 121.33994,87.4996 96.479512,90 62.53125,90 L 134,90 c 3.324,0 6,-2.676 6,-6 l 0,-71.46875 z M 62.53125,90 C 58.9207,89.9945 56,87.0793 56,83.46875 L 56,84 c 0,3.324 2.676,6 6,6 l 0.53125,0 z"
                id="path3802" inkscape:connector-curvature="0" />
        </clipPath>
        <linearGradient gradientTransform="translate(50,0)" gradientUnits="userSpaceOnUse"
            id="linearGradient3804" x1="48" x2="48" y1="90" y2="5.9877172"
            xlink:href="#ButtonColor" />
        <filter color-interpolation-filters="sRGB" id="filter3810">
            <feGaussianBlur id="feGaussianBlur3812" stdDeviation="1.2600071" />
        </filter>
        <linearGradient gradientUnits="userSpaceOnUse" id="linearGradient3825" x1="82.08036"
            x2="59.611588" y1="82.290176" y2="59.821404" xlink:href="#linearGradient3737" />
        <linearGradient gradientTransform="matrix(1.0172414,0,0,1.0172414,-1.1034483,-1.1034483)"
            gradientUnits="userSpaceOnUse" id="ButtonColor-0" x1="58.650177" x2="58.650177" y1="122"
            y2="5.4252338">
            <stop style="stop-color:#f5f5f5;stop-opacity:1;" id="stop3189-4" offset="0" />
            <stop style="stop-color:#ffffff;stop-opacity:1" id="stop3191-8" offset="1" />
        </linearGradient>
        <linearGradient gradientUnits="userSpaceOnUse" id="linearGradient3763" x1="49.057751"
            x2="49.057751" y1="36.02602" y2="6.0722966" xlink:href="#linearGradient3757" />
        <linearGradient gradientUnits="userSpaceOnUse" id="linearGradient3699" x1="46.784908"
            x2="46.784908" y1="32.026962" y2="68.028786" xlink:href="#linearGradient3737" />
        <linearGradient gradientUnits="userSpaceOnUse" id="linearGradient3707" x1="47.868935"
            x2="47.868935" y1="91.174545" y2="5.8992176" xlink:href="#ButtonShadow" />
        <linearGradient gradientTransform="translate(-1,-1)" gradientUnits="userSpaceOnUse"
            id="linearGradient3722" x1="46.965103" x2="46.965103" y1="93.415817" y2="8.3638449"
            xlink:href="#ButtonShadow" />
        <linearGradient gradientTransform="translate(-1,-1)" gradientUnits="userSpaceOnUse"
            id="linearGradient3736" x1="46.965103" x2="46.965103" y1="93.415817" y2="8.3638449"
            xlink:href="#ButtonShadow" />
        <linearGradient gradientTransform="translate(-1,-1)" gradientUnits="userSpaceOnUse"
            id="linearGradient3752" x1="46.965103" x2="46.965103" y1="93.415817" y2="8.3638449"
            xlink:href="#ButtonShadow" />
        <linearGradient gradientTransform="translate(-1,-1)" gradientUnits="userSpaceOnUse"
            id="linearGradient3760" x1="46.965103" x2="46.965103" y1="93.415817" y2="8.3638449"
            xlink:href="#ButtonShadow" />
        <linearGradient gradientTransform="matrix(0,1,1,0,-10,10)" gradientUnits="userSpaceOnUse"
            id="linearGradient3784" x1="10" x2="18" y1="24" y2="24"
            xlink:href="#linearGradient3778" />
        <linearGradient id="linearGradient3778">
            <stop style="stop-color:#000000;stop-opacity:1" id="stop3780" offset="0" />
            <stop style="stop-color:#000000;stop-opacity:0" id="stop3786" offset="0.5" />
            <stop style="stop-color:#ffffff;stop-opacity:1;" id="stop3782" offset="1" />
        </linearGradient>
        <linearGradient gradientUnits="userSpaceOnUse" id="linearGradient3751" x1="9" x2="9" y1="22"
            y2="26" xlink:href="#linearGradient3745" />
        <linearGradient id="linearGradient3745">
            <stop style="stop-color:#8a8a8a;stop-opacity:1" id="stop3747" offset="0" />
            <stop style="stop-color:#8b8b8b;stop-opacity:1;" id="stop3753" offset="0.40964222" />
            <stop style="stop-color:#6f6f6f;stop-opacity:1" id="stop3755" offset="0.72741055" />
            <stop style="stop-color:#373737;stop-opacity:1" id="stop3749" offset="1" />
        </linearGradient>
        <linearGradient gradientUnits="userSpaceOnUse" id="linearGradient3767"
            spreadMethod="reflect" x1="4" x2="12" y1="24" y2="24"
            xlink:href="#linearGradient3761" />
        <linearGradient id="linearGradient3761">
            <stop style="stop-color:#000000;stop-opacity:1" id="stop3763" offset="0" />
            <stop style="stop-color:#000000;stop-opacity:0.19379845" id="stop3769" offset="0.5" />
            <stop style="stop-color:#000000;stop-opacity:0" id="stop3765" offset="1" />
        </linearGradient>
        <linearGradient gradientTransform="matrix(0,1,1,0,-10,10)" gradientUnits="userSpaceOnUse"
            id="linearGradient3138" x1="10" x2="18" y1="24" y2="24"
            xlink:href="#linearGradient3778" />
        <linearGradient id="linearGradient3140">
            <stop style="stop-color:#000000;stop-opacity:1" id="stop3142" offset="0" />
            <stop style="stop-color:#000000;stop-opacity:0" id="stop3144" offset="0.5" />
            <stop style="stop-color:#ffffff;stop-opacity:1" id="stop3146" offset="1" />
        </linearGradient>
        <linearGradient gradientUnits="userSpaceOnUse" id="linearGradient3148" x1="9" x2="9" y1="22"
            y2="26" xlink:href="#linearGradient3745" />
        <linearGradient id="linearGradient3150">
            <stop style="stop-color:#8a8a8a;stop-opacity:1" id="stop3152" offset="0" />
            <stop style="stop-color:#d5d5d5;stop-opacity:1" id="stop3154" offset="0.40964222" />
            <stop style="stop-color:#6f6f6f;stop-opacity:1" id="stop3156" offset="0.72741055" />
            <stop style="stop-color:#373737;stop-opacity:1" id="stop3158" offset="1" />
        </linearGradient>
        <linearGradient gradientUnits="userSpaceOnUse" id="linearGradient3160"
            spreadMethod="reflect" x1="4" x2="12" y1="24" y2="24"
            xlink:href="#linearGradient3761" />
        <linearGradient id="linearGradient3162">
            <stop style="stop-color:#000000;stop-opacity:1" id="stop3164" offset="0" />
            <stop style="stop-color:#000000;stop-opacity:0.19379845" id="stop3166" offset="0.5" />
            <stop style="stop-color:#000000;stop-opacity:0" id="stop3168" offset="1" />
        </linearGradient>
        <linearGradient gradientTransform="matrix(0,1,1,0,-10,10)" gradientUnits="userSpaceOnUse"
            id="linearGradient3170" x1="10" x2="18" y1="24" y2="24"
            xlink:href="#linearGradient3778" />
        <linearGradient id="linearGradient3172">
            <stop style="stop-color:#000000;stop-opacity:1" id="stop3174" offset="0" />
            <stop style="stop-color:#000000;stop-opacity:0" id="stop3176" offset="0.5" />
            <stop style="stop-color:#ffffff;stop-opacity:1" id="stop3178" offset="1" />
        </linearGradient>
        <linearGradient gradientUnits="userSpaceOnUse" id="linearGradient3180" x1="9" x2="9" y1="22"
            y2="26" xlink:href="#linearGradient3745" />
        <linearGradient id="linearGradient3182">
            <stop style="stop-color:#8a8a8a;stop-opacity:1" id="stop3184" offset="0" />
            <stop style="stop-color:#d5d5d5;stop-opacity:1" id="stop3186" offset="0.40964222" />
            <stop style="stop-color:#6f6f6f;stop-opacity:1" id="stop3188" offset="0.72741055" />
            <stop style="stop-color:#373737;stop-opacity:1" id="stop3190" offset="1" />
        </linearGradient>
        <linearGradient gradientUnits="userSpaceOnUse" id="linearGradient3192"
            spreadMethod="reflect" x1="4" x2="12" y1="24" y2="24"
            xlink:href="#linearGradient3761" />
        <linearGradient id="linearGradient3194">
            <stop style="stop-color:#000000;stop-opacity:1" id="stop3196" offset="0" />
            <stop style="stop-color:#000000;stop-opacity:0.19379845" id="stop3198" offset="0.5" />
            <stop style="stop-color:#000000;stop-opacity:0" id="stop3200" offset="1" />
        </linearGradient>
        <linearGradient gradientTransform="matrix(0,1,1,0,-10,10)" gradientUnits="userSpaceOnUse"
            id="linearGradient3202" x1="10" x2="18" y1="24" y2="24"
            xlink:href="#linearGradient3778" />
        <linearGradient id="linearGradient3204">
            <stop style="stop-color:#000000;stop-opacity:1" id="stop3206" offset="0" />
            <stop style="stop-color:#000000;stop-opacity:0" id="stop3208" offset="0.5" />
            <stop style="stop-color:#ffffff;stop-opacity:1" id="stop3210" offset="1" />
        </linearGradient>
        <linearGradient gradientUnits="userSpaceOnUse" id="linearGradient3212" x1="9" x2="9" y1="22"
            y2="26" xlink:href="#linearGradient3745" />
        <linearGradient id="linearGradient3214">
            <stop style="stop-color:#8a8a8a;stop-opacity:1" id="stop3216" offset="0" />
            <stop style="stop-color:#d5d5d5;stop-opacity:1" id="stop3218" offset="0.40964222" />
            <stop style="stop-color:#6f6f6f;stop-opacity:1" id="stop3220" offset="0.72741055" />
            <stop style="stop-color:#373737;stop-opacity:1" id="stop3222" offset="1" />
        </linearGradient>
        <linearGradient gradientUnits="userSpaceOnUse" id="linearGradient3224"
            spreadMethod="reflect" x1="4" x2="12" y1="24" y2="24"
            xlink:href="#linearGradient3761" />
        <linearGradient id="linearGradient3226">
            <stop style="stop-color:#000000;stop-opacity:1" id="stop3228" offset="0" />
            <stop style="stop-color:#000000;stop-opacity:0.19379845" id="stop3230" offset="0.5" />
            <stop style="stop-color:#000000;stop-opacity:0" id="stop3232" offset="1" />
        </linearGradient>
        <linearGradient gradientTransform="matrix(0,1,1,0,-10,10)" gradientUnits="userSpaceOnUse"
            id="linearGradient3234" x1="10" x2="18" y1="24" y2="24"
            xlink:href="#linearGradient3778" />
        <linearGradient id="linearGradient3236">
            <stop style="stop-color:#000000;stop-opacity:1" id="stop3238" offset="0" />
            <stop style="stop-color:#000000;stop-opacity:0" id="stop3240" offset="0.5" />
            <stop style="stop-color:#ffffff;stop-opacity:1" id="stop3242" offset="1" />
        </linearGradient>
        <linearGradient gradientUnits="userSpaceOnUse" id="linearGradient3244" x1="9" x2="9" y1="22"
            y2="26" xlink:href="#linearGradient3745" />
        <linearGradient id="linearGradient3246">
            <stop style="stop-color:#8a8a8a;stop-opacity:1" id="stop3248" offset="0" />
            <stop style="stop-color:#d5d5d5;stop-opacity:1" id="stop3250" offset="0.40964222" />
            <stop style="stop-color:#6f6f6f;stop-opacity:1" id="stop3252" offset="0.72741055" />
            <stop style="stop-color:#373737;stop-opacity:1" id="stop3254" offset="1" />
        </linearGradient>
        <linearGradient gradientUnits="userSpaceOnUse" id="linearGradient3256"
            spreadMethod="reflect" x1="4" x2="12" y1="24" y2="24"
            xlink:href="#linearGradient3761" />
        <linearGradient id="linearGradient3258">
            <stop style="stop-color:#000000;stop-opacity:1" id="stop3260" offset="0" />
            <stop style="stop-color:#000000;stop-opacity:0.19379845" id="stop3262" offset="0.5" />
            <stop style="stop-color:#000000;stop-opacity:0" id="stop3264" offset="1" />
        </linearGradient>
        <linearGradient gradientTransform="matrix(2.1022727,0,0,2.1022727,-47.909089,-53.727272)"
            gradientUnits="userSpaceOnUse" id="linearGradient4034" x1="45.62162" x2="45.62162"
            y1="40.778378" y2="56" xlink:href="#linearGradient4028" />
        <linearGradient id="linearGradient4028">
            <stop style="stop-color:#000000;stop-opacity:0.80916029" id="stop4030" offset="0" />
            <stop style="stop-color:#000000;stop-opacity:0.4351145" id="stop4032" offset="1" />
        </linearGradient>
        <clipPath id="clipPath4124">
            <path style="fill:#ff00ff;fill-opacity:1;fill-rule:nonzero;stroke:none"
                d="M 12,6 C 8.676,6 6,8.676 6,12 l 0,72 c 0,3.324 2.676,6 6,6 l 64,0 c 3.324,0 6,-2.676 6,-6 L 82,12 C 82,8.676 79.324,6 76,6 L 12,6 z m 41,26 c 4.743704,0 8.53125,3.572546 8.53125,8 -0.01825,0.53641 -0.02106,1.191497 -0.0625,1.8125 0.702765,0.441929 0.716648,1.927473 0.0625,3.46875 -0.232692,0.54826 -0.496623,0.961126 -0.8125,1.34375 -0.09925,0.462922 -0.122812,0.837373 -0.25,1.375 -0.353893,1.061686 -1.7896,3.18573 -2.84375,4.8125 -0.06772,1.079485 -0.03947,2.185261 0.09375,3.28125 3.292538,2.863076 11.89258,4.362091 11.90625,6.8125 L 69.8125,64 36.1875,64 36.375,62.90625 c -0.01278,-2.863077 8.572836,-4.04691 11.90625,-6.8125 0.231115,-1.347492 0.113438,-2.534285 0,-3.71875 -1.15686,-1.542305 -2.432269,-3.421804 -2.75,-4.375 -0.113856,-0.521158 -0.06413,-0.73154 -0.15625,-1.1875 -0.37917,-0.408095 -0.726944,-0.887885 -1,-1.53125 -0.688569,-1.622398 -0.65495,-3.218212 0.15625,-3.5625 C 44.48626,41.14442 44.47947,40.471466 44.46875,40 c 0,-4.427454 3.78755,-8 8.53125,-8 z"
                id="path4126" inkscape:connector-curvature="0" />
        </clipPath>
        <filter color-interpolation-filters="sRGB" height="1.4922727" id="filter4128"
            width="1.4683243" x="-0.23416217" y="-0.24613637">
            <feGaussianBlur id="feGaussianBlur4130" stdDeviation="3.2818182" />
        </filter>
        <linearGradient gradientUnits="userSpaceOnUse" id="linearGradient3613-7" x1="48" x2="48"
            y1="20.220806" y2="138.66119" xlink:href="#linearGradient3737-1" />
        <linearGradient id="linearGradient3737-1">
            <stop style="stop-color:#ffffff;stop-opacity:1" id="stop3739-2" offset="0" />
            <stop style="stop-color:#ffffff;stop-opacity:0" id="stop3741-4" offset="1" />
        </linearGradient>
        <clipPath id="clipPath3613-8">
            <rect style="fill:#ffffff;fill-opacity:1;fill-rule:nonzero;stroke:none" height="84"
                id="rect3615-4" rx="6" ry="6" width="84" x="6" y="6" />
        </clipPath>
        <filter color-interpolation-filters="sRGB" height="1.3839999" id="filter3794-1"
            width="1.3839999" x="-0.192" y="-0.192">
            <feGaussianBlur id="feGaussianBlur3796-1" stdDeviation="5.28" />
        </filter>
        <linearGradient gradientTransform="matrix(1.0238095,0,0,1.0119048,-1.1428571,-98.071429)"
            gradientUnits="userSpaceOnUse" id="linearGradient3059" x1="32.251034" x2="32.251034"
            y1="6.1317081" y2="90.238609" xlink:href="#ButtonShadow-0" />
        <linearGradient gradientTransform="matrix(1.0058652,0,0,0.994169,100,0)"
            gradientUnits="userSpaceOnUse" id="ButtonShadow-0" x1="45.447727" x2="45.447727"
            y1="92.539597" y2="7.0165396">
            <stop style="stop-color:#000000;stop-opacity:1" id="stop3750-8" offset="0" />
            <stop style="stop-color:#000000;stop-opacity:0.58823532" id="stop3752-5" offset="1" />
        </linearGradient>
        <linearGradient gradientTransform="matrix(1.0238095,0,0,1.0119048,-1.1428571,-98.071429)"
            gradientUnits="userSpaceOnUse" id="linearGradient3780" x1="32.251034" x2="32.251034"
            y1="6.1317081" y2="90.238609" xlink:href="#ButtonShadow-0" />
        <linearGradient gradientTransform="matrix(1.0058652,0,0,0.994169,100,0)"
            gradientUnits="userSpaceOnUse" id="linearGradient3287" x1="45.447727" x2="45.447727"
            y1="92.539597" y2="7.0165396">
            <stop style="stop-color:#000000;stop-opacity:1" id="stop3289" offset="0" />
            <stop style="stop-color:#000000;stop-opacity:0.58823532" id="stop3291" offset="1" />
        </linearGradient>
        <linearGradient gradientTransform="matrix(1.0238095,0,0,1.0119048,-1.1428571,-98.071429)"
            gradientUnits="userSpaceOnUse" id="linearGradient3772" x1="32.251034" x2="32.251034"
            y1="6.1317081" y2="90.238609" xlink:href="#ButtonShadow-0" />
        <linearGradient gradientTransform="matrix(1.0058652,0,0,0.994169,100,0)"
            gradientUnits="userSpaceOnUse" id="linearGradient3294" x1="45.447727" x2="45.447727"
            y1="92.539597" y2="7.0165396">
            <stop style="stop-color:#000000;stop-opacity:1" id="stop3296" offset="0" />
            <stop style="stop-color:#000000;stop-opacity:0.58823532" id="stop3298" offset="1" />
        </linearGradient>
        <linearGradient gradientTransform="matrix(1.0238095,0,0,1.0119048,-1.1428571,-98.071429)"
            gradientUnits="userSpaceOnUse" id="linearGradient3725" x1="32.251034" x2="32.251034"
            y1="6.1317081" y2="90.238609" xlink:href="#ButtonShadow-0" />
        <linearGradient gradientTransform="matrix(1.0058652,0,0,0.994169,100,0)"
            gradientUnits="userSpaceOnUse" id="linearGradient3301" x1="45.447727" x2="45.447727"
            y1="92.539597" y2="7.0165396">
            <stop style="stop-color:#000000;stop-opacity:1" id="stop3303" offset="0" />
            <stop style="stop-color:#000000;stop-opacity:0.58823532" id="stop3305" offset="1" />
        </linearGradient>
        <linearGradient gradientTransform="translate(0,-97)" gradientUnits="userSpaceOnUse"
            id="linearGradient3721" x1="32.251034" x2="32.251034" y1="6.1317081" y2="90.238609"
            xlink:href="#ButtonShadow-0" />
        <linearGradient gradientTransform="matrix(1.0058652,0,0,0.994169,100,0)"
            gradientUnits="userSpaceOnUse" id="linearGradient3308" x1="45.447727" x2="45.447727"
            y1="92.539597" y2="7.0165396">
            <stop style="stop-color:#000000;stop-opacity:1" id="stop3310" offset="0" />
            <stop style="stop-color:#000000;stop-opacity:0.58823532" id="stop3312" offset="1" />
        </linearGradient>
        <linearGradient gradientTransform="matrix(1.0238095,0,0,1.0119048,-1.1428571,-98.071429)"
            gradientUnits="userSpaceOnUse" id="linearGradient4441" x1="32.251034" x2="32.251034"
            y1="6.1317081" y2="90.238609" inkscape:collect="always" xlink:href="#ButtonShadow-0" />
        <linearGradient gradientTransform="matrix(1.0238095,0,0,1.0119048,-1.1428571,-98.071429)"
            gradientUnits="userSpaceOnUse" id="linearGradient4443" x1="32.251034" x2="32.251034"
            y1="6.1317081" y2="90.238609" inkscape:collect="always" xlink:href="#ButtonShadow-0" />
        <linearGradient gradientTransform="matrix(1.0238095,0,0,1.0119048,-1.1428571,-98.071429)"
            gradientUnits="userSpaceOnUse" id="linearGradient4445" x1="32.251034" x2="32.251034"
            y1="6.1317081" y2="90.238609" inkscape:collect="always" xlink:href="#ButtonShadow-0" />
        <linearGradient gradientTransform="matrix(1.0238095,0,0,1.0119048,-1.1428571,-98.071429)"
            gradientUnits="userSpaceOnUse" id="linearGradient4447" x1="32.251034" x2="32.251034"
            y1="6.1317081" y2="90.238609" inkscape:collect="always" xlink:href="#ButtonShadow-0" />
        <linearGradient gradientTransform="translate(0,-97)" gradientUnits="userSpaceOnUse"
            id="linearGradient4449" x1="32.251034" x2="32.251034" y1="6.1317081" y2="90.238609"
            inkscape:collect="always" xlink:href="#ButtonShadow-0" />
        <linearGradient gradientTransform="matrix(2.1022727,0,0,2.1022727,-47.909089,-53.727272)"
            gradientUnits="userSpaceOnUse" id="linearGradient4451" x1="45.62162" x2="45.62162"
            y1="40.778378" y2="56" inkscape:collect="always" xlink:href="#linearGradient4028" />
        <linearGradient gradientTransform="translate(-124.09844,-206.11742)"
            gradientUnits="userSpaceOnUse" id="linearGradient4952" x1="32.251034" x2="32.251034"
            y1="6.1317081" y2="90.238609" inkscape:collect="always" xlink:href="#ButtonShadow-0" />
        <linearGradient gradientTransform="matrix(1.0238095,0,0,1.0119048,-122.36493,-202.01139)"
            gradientUnits="userSpaceOnUse" id="linearGradient4955" x1="32.251034" x2="32.251034"
            y1="6.1317081" y2="90.238609" inkscape:collect="always" xlink:href="#ButtonShadow-0" />
        <linearGradient gradientTransform="matrix(1.0238095,0,0,-1.0119048,-122.36493,202.01139)"
            gradientUnits="userSpaceOnUse" id="linearGradient4958" x1="32.251034" x2="32.251034"
            y1="6.1317081" y2="90.238609" inkscape:collect="always" xlink:href="#ButtonShadow-0" />
        <linearGradient gradientTransform="matrix(1.0238095,0,0,-1.0119048,-122.36493,202.01139)"
            gradientUnits="userSpaceOnUse" id="linearGradient4961" x1="32.251034" x2="32.251034"
            y1="6.1317081" y2="90.238609" inkscape:collect="always" xlink:href="#ButtonShadow-0" />
        <linearGradient gradientTransform="matrix(1.0238095,0,0,-1.0119048,-122.36493,202.01139)"
            gradientUnits="userSpaceOnUse" id="linearGradient4964" x1="32.251034" x2="32.251034"
            y1="6.1317081" y2="90.238609" inkscape:collect="always" xlink:href="#ButtonShadow-0" />
        <linearGradient gradientTransform="matrix(0,1,1,0,-10,10)" gradientUnits="userSpaceOnUse"
            id="linearGradient4972" x1="10" x2="18" y1="24" y2="24" inkscape:collect="always"
            xlink:href="#linearGradient3778" />
        <linearGradient gradientUnits="userSpaceOnUse" id="linearGradient4974" x1="9" x2="9" y1="22"
            y2="26" inkscape:collect="always" xlink:href="#linearGradient3745" />
        <linearGradient gradientUnits="userSpaceOnUse" id="linearGradient4976"
            spreadMethod="reflect" x1="4" x2="12" y1="24" y2="24" inkscape:collect="always"
            xlink:href="#linearGradient3761" />
        <linearGradient gradientTransform="matrix(0,1,1,0,-10,10)" gradientUnits="userSpaceOnUse"
            id="linearGradient5000" x1="10" x2="18" y1="24" y2="24" inkscape:collect="always"
            xlink:href="#linearGradient3778" />
        <linearGradient gradientUnits="userSpaceOnUse" id="linearGradient5002" x1="9" x2="9" y1="22"
            y2="26" inkscape:collect="always" xlink:href="#linearGradient3745" />
        <linearGradient gradientUnits="userSpaceOnUse" id="linearGradient5004"
            spreadMethod="reflect" x1="4" x2="12" y1="24" y2="24" inkscape:collect="always"
            xlink:href="#linearGradient3761" />
        <linearGradient gradientTransform="matrix(0,1,1,0,-10,10)" gradientUnits="userSpaceOnUse"
            id="linearGradient5006" x1="10" x2="18" y1="24" y2="24" inkscape:collect="always"
            xlink:href="#linearGradient3778" />
        <linearGradient gradientUnits="userSpaceOnUse" id="linearGradient5008" x1="9" x2="9" y1="22"
            y2="26" inkscape:collect="always" xlink:href="#linearGradient3745" />
        <linearGradient gradientUnits="userSpaceOnUse" id="linearGradient5010"
            spreadMethod="reflect" x1="4" x2="12" y1="24" y2="24" inkscape:collect="always"
            xlink:href="#linearGradient3761" />
        <linearGradient gradientTransform="matrix(0,1,1,0,-10,10)" gradientUnits="userSpaceOnUse"
            id="linearGradient5006-5" x1="10" x2="18" y1="24" y2="24" inkscape:collect="always"
            xlink:href="#linearGradient3778-0" />
        <linearGradient id="linearGradient3778-0">
            <stop style="stop-color:#000000;stop-opacity:1" id="stop3780-3" offset="0" />
            <stop style="stop-color:#000000;stop-opacity:0" id="stop3786-0" offset="0.5" />
            <stop style="stop-color:#ffffff;stop-opacity:1" id="stop3782-4" offset="1" />
        </linearGradient>
        <linearGradient gradientUnits="userSpaceOnUse" id="linearGradient5008-1" x1="9" x2="9"
            y1="22" y2="26" inkscape:collect="always" xlink:href="#linearGradient3745-6" />
        <linearGradient id="linearGradient3745-6">
            <stop style="stop-color:#8a8a8a;stop-opacity:1" id="stop3747-7" offset="0" />
            <stop style="stop-color:#d5d5d5;stop-opacity:1" id="stop3753-8" offset="0.40964222" />
            <stop style="stop-color:#6f6f6f;stop-opacity:1" id="stop3755-0" offset="0.72741055" />
            <stop style="stop-color:#373737;stop-opacity:1" id="stop3749-0" offset="1" />
        </linearGradient>
        <linearGradient gradientUnits="userSpaceOnUse" id="linearGradient5010-5"
            spreadMethod="reflect" x1="4" x2="12" y1="24" y2="24" inkscape:collect="always"
            xlink:href="#linearGradient3761-1" />
        <linearGradient id="linearGradient3761-1">
            <stop style="stop-color:#000000;stop-opacity:1" id="stop3763-7" offset="0" />
            <stop style="stop-color:#000000;stop-opacity:0.19379845" id="stop3769-7" offset="0.5" />
            <stop style="stop-color:#000000;stop-opacity:0" id="stop3765-8" offset="1" />
        </linearGradient>
        <linearGradient gradientUnits="userSpaceOnUse" id="linearGradient5044"
            spreadMethod="reflect" x1="4" x2="12" y1="24" y2="24" inkscape:collect="always"
            xlink:href="#linearGradient3761-1" />
        <linearGradient gradientTransform="matrix(0,1,1,0,-10,10)" gradientUnits="userSpaceOnUse"
            id="linearGradient5006-9" x1="10" x2="18" y1="24" y2="24" inkscape:collect="always"
            xlink:href="#linearGradient3778-9" />
        <linearGradient id="linearGradient3778-9">
            <stop style="stop-color:#000000;stop-opacity:1" id="stop3780-0" offset="0" />
            <stop style="stop-color:#000000;stop-opacity:0" id="stop3786-3" offset="0.5" />
            <stop style="stop-color:#ffffff;stop-opacity:1" id="stop3782-2" offset="1" />
        </linearGradient>
        <linearGradient gradientUnits="userSpaceOnUse" id="linearGradient5008-2" x1="9" x2="9"
            y1="22" y2="26" inkscape:collect="always" xlink:href="#linearGradient3745-65" />
        <linearGradient id="linearGradient3745-65">
            <stop style="stop-color:#8a8a8a;stop-opacity:1" id="stop3747-3" offset="0" />
            <stop style="stop-color:#d5d5d5;stop-opacity:1" id="stop3753-3" offset="0.40964222" />
            <stop style="stop-color:#6f6f6f;stop-opacity:1" id="stop3755-7" offset="0.72741055" />
            <stop style="stop-color:#373737;stop-opacity:1" id="stop3749-7" offset="1" />
        </linearGradient>
        <linearGradient gradientUnits="userSpaceOnUse" id="linearGradient5010-3"
            spreadMethod="reflect" x1="4" x2="12" y1="24" y2="24" inkscape:collect="always"
            xlink:href="#linearGradient3761-18" />
        <linearGradient id="linearGradient3761-18">
            <stop style="stop-color:#000000;stop-opacity:1" id="stop3763-1" offset="0" />
            <stop style="stop-color:#000000;stop-opacity:0.19379845" id="stop3769-1" offset="0.5" />
            <stop style="stop-color:#000000;stop-opacity:0" id="stop3765-7" offset="1" />
        </linearGradient>
        <linearGradient gradientUnits="userSpaceOnUse" id="linearGradient5129"
            spreadMethod="reflect" x1="4" x2="12" y1="24" y2="24" inkscape:collect="always"
            xlink:href="#linearGradient3761-18" />
        <linearGradient gradientTransform="translate(-24.298324,-59.394827)"
            gradientUnits="userSpaceOnUse" id="linearGradient5188" spreadMethod="reflect" x1="4"
            x2="12" y1="24" y2="24" inkscape:collect="always" xlink:href="#linearGradient3761" />
        <linearGradient gradientTransform="translate(-24.298324,-59.394827)"
            gradientUnits="userSpaceOnUse" id="linearGradient5191" x1="9" x2="9" y1="22" y2="26"
            inkscape:collect="always" xlink:href="#linearGradient3745" />
        <linearGradient gradientTransform="matrix(-1,0,0,1,49.394827,-34.298324)"
            gradientUnits="userSpaceOnUse" id="linearGradient5196" x1="10" x2="18" y1="24" y2="24"
            inkscape:collect="always" xlink:href="#linearGradient3778" />
        <linearGradient gradientTransform="translate(-1,-1)" gradientUnits="userSpaceOnUse"
            id="linearGradient5218" x1="46.965103" x2="46.965103" y1="93.415817" y2="8.3638449"
            inkscape:collect="always" xlink:href="#ButtonShadow" />
        <linearGradient gradientTransform="translate(-1,-1)" gradientUnits="userSpaceOnUse"
            id="linearGradient5221" x1="46.965103" x2="46.965103" y1="93.415817" y2="8.3638449"
            inkscape:collect="always" xlink:href="#ButtonShadow" />
        <linearGradient gradientTransform="translate(-1,-1)" gradientUnits="userSpaceOnUse"
            id="linearGradient5224" x1="46.965103" x2="46.965103" y1="93.415817" y2="8.3638449"
            inkscape:collect="always" xlink:href="#ButtonShadow" />
        <linearGradient id="linearGradient3778-2">
            <stop style="stop-color:#000000;stop-opacity:1" id="stop3780-7" offset="0" />
            <stop style="stop-color:#000000;stop-opacity:0" id="stop3786-39" offset="0.5" />
            <stop style="stop-color:#ffffff;stop-opacity:1" id="stop3782-3" offset="1" />
        </linearGradient>
        <linearGradient id="linearGradient3745-8">
            <stop style="stop-color:#8a8a8a;stop-opacity:1" id="stop3747-2" offset="0" />
            <stop style="stop-color:#8b8b8b;stop-opacity:1;" id="stop3753-6" offset="0.40964222" />
            <stop style="stop-color:#6f6f6f;stop-opacity:1" id="stop3755-3" offset="0.72741055" />
            <stop style="stop-color:#373737;stop-opacity:1" id="stop3749-70" offset="1" />
        </linearGradient>
        <linearGradient gradientTransform="translate(-24.298324,-59.394827)"
            gradientUnits="userSpaceOnUse" id="linearGradient5209-9" spreadMethod="reflect" x1="4"
            x2="12" y1="24" y2="24" inkscape:collect="always" xlink:href="#linearGradient3761-2" />
        <linearGradient id="linearGradient3761-2">
            <stop style="stop-color:#000000;stop-opacity:1" id="stop3763-3" offset="0" />
            <stop style="stop-color:#000000;stop-opacity:0.19379845" id="stop3769-2" offset="0.5" />
            <stop style="stop-color:#000000;stop-opacity:0" id="stop3765-9" offset="1" />
        </linearGradient>
        <linearGradient id="linearGradient3778-09">
            <stop style="stop-color:#000000;stop-opacity:1" id="stop3780-1" offset="0" />
            <stop style="stop-color:#000000;stop-opacity:0" id="stop3786-2" offset="0.5" />
            <stop style="stop-color:#ffffff;stop-opacity:1;" id="stop3782-5" offset="1" />
        </linearGradient>
        <linearGradient id="linearGradient3745-5">
            <stop style="stop-color:#8a8a8a;stop-opacity:1" id="stop3747-9" offset="0" />
            <stop style="stop-color:#8b8b8b;stop-opacity:1;" id="stop3753-83" offset="0.40964222" />
            <stop style="stop-color:#6f6f6f;stop-opacity:1" id="stop3755-2" offset="0.72741055" />
            <stop style="stop-color:#373737;stop-opacity:1" id="stop3749-78" offset="1" />
        </linearGradient>
        <linearGradient id="linearGradient3761-7">
            <stop style="stop-color:#000000;stop-opacity:1" id="stop3763-0" offset="0" />
            <stop style="stop-color:#000000;stop-opacity:0.19379845" id="stop3769-5" offset="0.5" />
            <stop style="stop-color:#000000;stop-opacity:0" id="stop3765-0" offset="1" />
        </linearGradient>
        <linearGradient gradientUnits="userSpaceOnUse" id="linearGradient5497-8" x1="48" x2="48"
            y1="90" y2="5.9877172" inkscape:collect="always" xlink:href="#ButtonColor-0-4" />
        <linearGradient gradientTransform="matrix(1.0172414,0,0,1.0172414,-1.1034483,-1.1034483)"
            gradientUnits="userSpaceOnUse" id="ButtonColor-0-4" x1="58.650177" x2="58.650177"
            y1="122" y2="5.4252338">
            <stop style="stop-color:#ffffff;stop-opacity:1;" id="stop3189-4-6" offset="0" />
            <stop style="stop-color:#000000;stop-opacity:0;" id="stop3191-8-9" offset="1" />
        </linearGradient>
        <linearGradient gradientUnits="userSpaceOnUse" id="linearGradient5590" x1="29.898304"
            x2="89.288139" y1="26.237288" y2="72.610168" inkscape:collect="always"
            xlink:href="#ButtonColor-0-4" />
    </defs>
    <metadata id="metadata2413">
        <rdf:RDF>
            <cc:Work rdf:about="">
                <dc:format>image/svg+xml</dc:format>
                <dc:type rdf:resource="http://purl.org/dc/dcmitype/StillImage" />
                <dc:title />
            </cc:Work>
        </rdf:RDF>
    </metadata>
    <g style="display:none" id="layer2">
        <path
            style="opacity:0.9;fill:url(#ButtonShadow);fill-opacity:1;fill-rule:nonzero;stroke:none;filter:url(#filter3174)"
            d="M 11,7 C 7.676,7 5,9.676 5,13 l 0,73 c 0,3.324 2.676,6 6,6 l 74,0 c 3.324,0 6,-2.676 6,-6 L 91,13 C 91,9.676 88.324,7 85,7 l -15,0 0,2.5625 c 1.19379,0.692085 2,1.958291 2,3.4375 0,2.209139 -1.79086,4 -4,4 -2.20914,0 -4,-1.790861 -4,-4 0,-1.479209 0.80621,-2.745415 2,-3.4375 L 66,7 30,7 30,9.5625 c 1.19379,0.692085 2,1.958291 2,3.4375 0,2.209139 -1.79086,4 -4,4 -2.20914,0 -4,-1.790861 -4,-4 0,-1.479209 0.80621,-2.745415 2,-3.4375 L 26,7 11,7 z"
            id="rect3745" inkscape:connector-curvature="0" />
    </g>
    <path
        style="font-size:medium;font-style:normal;font-variant:normal;font-weight:normal;font-stretch:normal;text-indent:0;text-align:start;text-decoration:none;line-height:normal;letter-spacing:normal;word-spacing:normal;text-transform:none;direction:ltr;block-progression:tb;writing-mode:lr-tb;text-anchor:start;baseline-shift:baseline;color:#000000;fill:#000000;fill-opacity:1;stroke:none;stroke-width:10.24499989;marker:none;visibility:visible;display:inline;overflow:visible;enable-background:accumulate;font-family:Sans;-inkscape-font-specification:Sans"
        d="M 16.46875 5.625 C 10.321489 5.625 5.1875 10.758985 5.1875 16.90625 L 5.1875 79.09375 C 5.1875 85.241016 10.321467 90.375 16.46875 90.375 L 79.53125 90.375 C 85.678532 90.375 90.8125 85.241032 90.8125 79.09375 L 90.8125 16.90625 C 90.8125 10.758969 85.67851 5.625 79.53125 5.625 L 70 5.625 L 70 8.3125 C 71.357934 9.0857536 72.28125 10.513067 72.28125 12.1875 C 72.28125 14.669646 70.263396 16.6875 67.78125 16.6875 C 65.299104 16.6875 63.3125 14.669646 63.3125 12.1875 C 63.3125 10.427509 64.307724 8.9251372 65.78125 8.1875 L 65.78125 5.625 L 64 5.625 L 61.9375 5.625 L 34.0625 5.625 L 32 5.625 L 30 5.625 L 30 8.3125 C 31.357934 9.0857536 32.28125 10.513067 32.28125 12.1875 C 32.28125 14.669646 30.263396 16.6875 27.78125 16.6875 C 25.299104 16.6875 23.3125 14.669646 23.3125 12.1875 C 23.3125 10.427509 24.307724 8.9251372 25.78125 8.1875 L 25.78125 5.625 L 16.46875 5.625 z M 15.4375 30.03125 L 80.5625 30.03125 L 80.5625 79.09375 C 80.5625 79.742484 80.179986 80.125 79.53125 80.125 L 16.46875 80.125 C 15.819997 80.125 15.4375 79.7425 15.4375 79.09375 L 15.4375 30.03125 z "
        id="rect3713" />
    <g style="display:inline" id="g2751"
        transform="matrix(0.35049316,0,0,0.3538302,42.738451,15.822022)" />
    <path
        style="font-size:49.04632187px;font-style:normal;font-variant:normal;font-weight:bold;font-stretch:normal;text-align:center;line-height:125%;writing-mode:lr-tb;text-anchor:middle;opacity:0.8;fill:#000000;fill-opacity:1;stroke:none;font-family:Coolvetica;-inkscape-font-specification:Coolvetica Bold"
        d="m -67.80952,59.975616 c -1.8e-5,-0.164139 -1.8e-5,-0.459621 0,-0.886446 -1.8e-5,-0.459619 -1.8e-5,-0.804347 0,-1.034185 -1.8e-5,-6.99304 -1.667592,-10.48957 -5.002725,-10.4896 -3.367857,3e-5 -5.051779,3.447312 -5.051771,10.341859 -8e-6,0.2955 -8e-6,0.67306 0,1.13268 -8e-6,0.459655 -8e-6,0.771553 0,0.935692 -8e-6,0.164173 -8e-6,0.459654 0,0.886445 -8e-6,0.426823 -8e-6,0.771551 0,1.034186 -8e-6,6.993074 1.683914,10.489604 5.051771,10.489599 3.335133,5e-6 5.002707,-3.578603 5.002725,-10.735834 -1.8e-5,-0.196973 -1.8e-5,-0.476038 0,-0.837198 -1.8e-5,-0.393959 -1.8e-5,-0.673025 0,-0.837198 m 6.964577,-1.13268 c -2.5e-5,5.77832 -0.621277,10.062801 -1.86376,12.853453 -1.863781,4.169575 -5.29702,6.270776 -10.299727,6.303609 -4.283388,0.03283 -7.373303,-1.608733 -9.269755,-4.924694 -1.373299,-2.363847 -2.239784,-5.958871 -2.599455,-10.785082 -0.09809,-1.149079 -0.14714,-2.265343 -0.147139,-3.348792 -1e-6,-4.793347 0.801088,-8.618189 2.40327,-11.474539 2.027242,-3.64424 5.231599,-5.466375 9.613079,-5.46641 8.108971,3.5e-5 12.163462,5.614181 12.163487,16.842455"
        id="path3926" inkscape:connector-curvature="0" />
    <path
        style="font-size:49.04632187px;font-style:normal;font-variant:normal;font-weight:bold;font-stretch:normal;text-align:center;line-height:125%;writing-mode:lr-tb;text-anchor:middle;opacity:0.8;fill:#000000;fill-opacity:1;stroke:none;font-family:Coolvetica;-inkscape-font-specification:Coolvetica Bold"
        d="m -40.975222,78 -6.915531,0 0,-24.810126 -8.337875,0 0,-4.962026 c 5.983644,3e-5 9.188,-2.075918 9.613079,-6.227848 l 5.640327,0 0,36"
        id="path3928" inkscape:connector-curvature="0" />
    <g id="g3683" transform="translate(0,4)" />
    <g style="font-size:4.20911837px;font-style:normal;font-variant:normal;font-weight:normal;font-stretch:normal;text-align:start;line-height:125%;writing-mode:lr-tb;text-anchor:start;fill:#4d4d4d;fill-opacity:1;stroke:none;font-family:Liberation Sans;-inkscape-font-specification:Liberation Sans"
        id="text3690" />
    <g style="font-size:192.5px;font-style:normal;font-weight:normal;line-height:125%;letter-spacing:0px;word-spacing:0px;fill:#000000;fill-opacity:0.8;stroke:none;font-family:Sans"
        id="text3073" transform="translate(-84.576271,46.745763)">
        <path
            style="font-size:48px;font-variant:normal;font-weight:800;font-stretch:normal;fill:#000000;fill-opacity:0.8;font-family:Exo;-inkscape-font-specification:Exo Ultra-Bold"
            d="m 40.271998,78.844476 -2.832,0 c -0.416013,0 -0.720013,0 -0.912,0 -0.192012,0 -0.736012,-0.016 -1.632,-0.048 -0.86401,0 -1.472009,-0.016 -1.824,-0.048 -0.320009,0 -0.848008,-0.032 -1.584,-0.096 -0.736007,-0.032 -1.312006,-0.08 -1.728,-0.144 -0.416005,-0.064 -0.912005,-0.144 -1.488,-0.24 -0.992003,-0.159999 -2.000002,-0.415999 -3.024,-0.768 l 0.048,-5.856 11.424,0 c 1.791986,7e-6 2.959984,-0.111993 3.504,-0.336 0.575983,-0.223992 0.943983,-0.527992 1.104,-0.912 0.159983,-0.383991 0.239983,-0.911991 0.24,-1.584 l 0,-1.056 c -1.7e-5,-1.439988 -0.560017,-2.335987 -1.68,-2.688 -0.672015,-0.223986 -1.632014,-0.351986 -2.88,-0.384 l -8.784,-0.384 0,-6.336 8.784,-0.48 c 1.759985,-0.09598 2.975984,-0.319978 3.648,-0.672 0.671983,-0.383978 1.007982,-1.151977 1.008,-2.304 l 0,-1.152 c -1.8e-5,-1.183973 -0.400017,-1.967973 -1.2,-2.352 -0.800016,-0.383972 -1.952014,-0.575972 -3.456,-0.576 l -12.048,0 0,-5.808 c 2.591997,-0.927965 6.063993,-1.391964 10.416,-1.392 1.631987,3.6e-5 3.375985,0.01604 5.232,0.048 2.687981,0.06403 4.831979,0.864035 6.432,2.4 1.599975,1.504032 2.399975,3.58403 2.4,6.24 l 0,2.208 c -2.5e-5,3.680021 -1.264024,5.984019 -3.792,6.912 2.527976,0.960017 3.791975,3.392014 3.792,7.296 l 0,1.728 c -2.5e-5,2.816006 -0.800025,4.992004 -2.4,6.528 -1.568021,1.504001 -3.824019,2.256 -6.768,2.256"
            id="path5183" inkscape:connector-curvature="0" />
        <path
            style="font-size:48px;font-variant:normal;font-weight:800;font-stretch:normal;fill:#000000;fill-opacity:0.8;font-family:Exo;-inkscape-font-specification:Exo Ultra-Bold"
            d="m 67.157998,43.372476 -0.431455,34.27309 -7.440545,0.86291 0,-27.504 -6.288,1.392 0,-5.088 6.336,-3.936 7.824,0"
            id="path5185" inkscape:connector-curvature="0" sodipodi:nodetypes="cccccccc" />
    </g>
    <text
        style="font-size:44px;font-style:normal;font-weight:normal;line-height:125%;letter-spacing:0px;word-spacing:0px;fill:#000000;fill-opacity:1;stroke:none;font-family:Sans"
        id="text5609" x="22.284639" y="71.200821" sodipodi:linespacing="125%" xml:space="preserve"><tspan
       style="font-size:44px;font-style:normal;font-variant:normal;font-weight:800;font-stretch:normal;fill:#000000;fill-opacity:1;font-family:Exo;-inkscape-font-specification:Exo Ultra-Bold"
       id="tspan5611"
       x="22.284639"
       y="71.200821"
       sodipodi:role="line">30</tspan></text>
</svg>
